<svg width="25" height="26" viewBox="0 0 25 26" fill="none" xmlns="http://www.w3.org/2000/svg">
<path d="M24.5246 10.6012H23.538V10.5503H12.5146V15.4496H19.4367C18.4268 18.3016 15.7132 20.3489 12.5146 20.3489C8.45613 20.3489 5.16565 17.0584 5.16565 13C5.16565 8.94154 8.45613 5.65106 12.5146 5.65106C14.3879 5.65106 16.0923 6.35778 17.39 7.51218L20.8544 4.04777C18.6669 2.00905 15.7408 0.75177 12.5146 0.75177C5.7505 0.75177 0.266357 6.23591 0.266357 13C0.266357 19.7641 5.7505 25.2482 12.5146 25.2482C19.2787 25.2482 24.7628 19.7641 24.7628 13C24.7628 12.1787 24.6783 11.3771 24.5246 10.6012Z" fill="#FFC107"/>
<path d="M1.6786 7.29906L5.70276 10.2503C6.79163 7.55443 9.42867 5.65106 12.5146 5.65106C14.388 5.65106 16.0923 6.35778 17.39 7.51218L20.8544 4.04777C18.6669 2.00905 15.7408 0.75177 12.5146 0.75177C7.81007 0.75177 3.73018 3.4078 1.6786 7.29906Z" fill="#FF3D00"/>
<path d="M12.5146 25.2482C15.6783 25.2482 18.553 24.0374 20.7264 22.0685L16.9356 18.8607C15.6646 19.8273 14.1114 20.3502 12.5146 20.3489C9.32883 20.3489 6.62381 18.3175 5.60476 15.4827L1.61061 18.56C3.63769 22.5266 7.75432 25.2482 12.5146 25.2482Z" fill="#4CAF50"/>
<path d="M24.5246 10.6012H23.538V10.5504H12.5146V15.4496H19.4367C18.9536 16.807 18.0835 17.9931 16.9337 18.8614L16.9356 18.8602L20.7264 22.068C20.4582 22.3117 24.7628 19.1241 24.7628 13C24.7628 12.1788 24.6783 11.3771 24.5246 10.6012Z" fill="#1976D2"/>
</svg>
